<?xml version="1.0" encoding="UTF-8"?>
<svg id="Livello_2" data-name="Livello 2" xmlns="http://www.w3.org/2000/svg" viewBox="0 0 266.73 89.91">
  <defs>
    <style>
      .cls-1 {
        fill: #ff7230;
      }

      .cls-2 {
        fill: #fff;
      }
    </style>
  </defs>
  <g id="Livello_1-2" data-name="Livello 1">
    <g>
      <g>
        <path class="cls-2" d="M14.11,2.22H0v84.16h32.83l2.11-12.92H14.11V2.22Z"/>
        <path class="cls-2" d="M69.95,2.22h-18.59l-13.7,84.16h13.18l2.26-16.26,1.81-12.33,5.22-37.6,5.33,37.6,1.81,12.33,2.25,16.26h14.14L70.03,2.67l-.08-.45Z"/>
        <path class="cls-2" d="M120.94,41.55c5.22-2.56,7.86-8.05,7.86-16.36v-3.33c0-13.4-6.32-19.64-19.91-19.64h-20.2v84.16h21.06c6.58,0,11.67-1.74,15.17-5.2,3.5-3.45,5.22-8.53,5.22-15.04v-7.12c0-4.74-.84-8.66-2.49-11.6-1.49-2.68-3.86-4.75-6.71-5.88h0ZM102.8,15.15h5.77c4.12,0,6.12,2.63,6.12,8.02v4.66c0,5.79-2.18,8.26-7.3,8.26h-4.58V15.15ZM115.99,65.76c0,2.84-.49,4.84-1.52,6.02-1.02,1.19-2.47,1.64-4.74,1.64h-6.95v-24.44h5.32c3.02,0,4.89.63,6.09,2.02,1.19,1.39,1.81,3.84,1.81,7.59v7.17Z"/>
        <path class="cls-2" d="M165.17,2.22h-18.59l-13.7,84.16h13.19l2.25-16.26,1.81-12.33,5.22-37.6,5.33,37.6,1.81,12.33,2.26,16.26h14.14L165.24,2.67l-.08-.45Z"/>
      </g>
      <g>
        <path class="cls-2" d="M266.73,67.21c0,12.12-7.66,20.57-18.63,20.57-6.04,0-11.13-2.47-14.32-6.94-3.06-4.33-3.18-10.17-2.48-16.18h9.35c-.93,4.4-.85,8.05.96,10.6,1.38,1.92,3.56,2.9,6.48,2.9,8.35,0,9.01-8.39,9.01-10.95,0-7.33-3.3-10.6-10.69-10.6h-15.26v-24.43h33.91v9.62h-24.29v5.19h5.64c12.71,0,20.31,7.57,20.31,20.22Z"/>
        <path class="cls-2" d="M225.39,21.58c0-12.12-7.66-20.57-18.63-20.57-6.04,0-11.13,2.47-14.32,6.94-3.06,4.33-3.53,10.17-2.83,16.18h9.35c-.93-4.4-.49-8.05,1.32-10.6,1.38-1.92,3.56-2.9,6.48-2.9,8.35,0,9.01,8.39,9.01,10.95,0,7.33-3.3,10.6-10.69,10.6h-15.26s0,24.43,0,24.43h34.6s0-9.62,0-9.62h-24.98s0-5.19,0-5.19h5.64c12.71,0,20.31-7.57,20.31-20.22Z"/>
        <path class="cls-1" d="M256.2,0c-5.76,0-10.44,4.68-10.44,10.44s4.68,10.45,10.44,10.45,10.45-4.68,10.45-10.45-4.68-10.44-10.45-10.44ZM256.2,14.88c-2.44,0-4.43-1.99-4.43-4.44s1.99-4.43,4.43-4.43,4.44,1.99,4.44,4.43-1.99,4.44-4.44,4.44Z"/>
        <path class="cls-1" d="M189.32,62.98v26.94l22.51-13.47-22.51-13.47ZM194.93,72.87l5.96,3.58-5.96,3.58v-7.15Z"/>
      </g>
    </g>
  </g>
</svg>