<svg width="245" height="68" viewBox="0 0 245 68" fill="none" xmlns="http://www.w3.org/2000/svg">
<path d="M162.181 18.1901H156.153V0H153.939V20.3009H162.181V18.1901Z" fill="#FF7230"/>
<path d="M165.265 0H163.051V20.3009H165.265V0Z" fill="#FF7230"/>
<path d="M174.548 9.59129C175.655 8.84119 176.225 7.5285 176.225 5.67611V4.8391C176.225 1.49335 174.776 0 171.54 0H167.044V20.3009H171.813C174.983 20.3009 176.527 18.6955 176.527 15.4069V13.7718C176.527 11.3774 175.589 10.179 174.548 9.58901V9.59129ZM171.51 2.11082C173.355 2.11082 174.009 2.85178 174.009 4.95344V5.89336C174.009 7.89898 173.232 8.67882 171.234 8.67882H169.255V2.11082H171.51ZM174.311 15.3795C174.311 17.4331 173.63 18.1924 171.813 18.1924H169.258V10.7896H171.291C173.544 10.7896 174.311 11.5397 174.311 13.7443V15.3795Z" fill="#FF7230"/>
<path d="M186.298 18.1901H180.021V10.7919H185.223V8.6811H180.021V2.11082H186.298V0H177.807V20.3009H186.298V18.1901Z" fill="#FF7230"/>
<path d="M196.602 19.6926C196.449 19.1803 196.374 18.4485 196.374 17.5063V13.9616C196.374 12.6123 196.176 10.8445 194.67 9.96863C195.798 9.25512 196.374 7.93557 196.374 6.03515V4.83681C196.374 1.49335 194.928 0 191.689 0H187.25V20.3009H189.464V11.1487H191.443C193.468 11.1487 194.16 11.8416 194.16 13.9136V17.5063C194.16 18.4005 194.235 19.2169 194.388 19.9304L194.472 20.3009H196.782L196.602 19.6926ZM194.16 6.2547C194.16 8.24202 193.384 9.01042 191.386 9.01042H189.464V2.11082H191.659C193.504 2.11082 194.158 2.85178 194.158 4.95344V6.2547H194.16Z" fill="#FF7230"/>
<path d="M203.749 0H201.268L197.075 20.3009H199.262L200.171 15.8529H204.789L205.726 20.3009H207.987L203.749 0ZM200.578 13.7626L202.462 4.56238L204.373 13.7626H200.578Z" fill="#FF7230"/>
<path d="M159.642 23.6855H157.162L152.978 43.9864H155.155L156.064 39.5292H160.692L161.628 43.9864H163.889L159.64 23.6855H159.642ZM156.481 37.4458L158.355 28.2456L160.277 37.4458H156.481Z" fill="#FF7230"/>
<path d="M168.975 23.4042C166.153 23.4042 164.4 25.3024 164.4 28.3577V39.3051C164.4 42.3604 166.153 44.2585 168.975 44.2585C171.874 44.2585 173.605 42.4061 173.605 39.3051V36.3138H171.446V39.36C171.446 41.1301 170.556 42.1477 169 42.1477C167.481 42.1477 166.611 41.1323 166.611 39.36V28.3028C166.611 26.5327 167.481 25.515 169 25.515C170.553 25.515 171.446 26.5304 171.446 28.3028V30.7955H173.605V28.3577C173.605 25.2566 171.874 23.4042 168.975 23.4042Z" fill="#FF7230"/>
<path d="M183.957 36.3138H181.798V39.36C181.798 41.1301 180.907 42.1477 179.354 42.1477C177.835 42.1477 176.965 41.1323 176.965 39.36V28.3028C176.965 26.5327 177.835 25.515 179.354 25.515C180.907 25.515 181.798 26.5304 181.798 28.3028V30.7955H183.957V28.3577C183.957 25.2566 182.226 23.4042 179.327 23.4042C176.505 23.4042 174.751 25.3024 174.751 28.3577V39.3051C174.751 42.3604 176.505 44.2585 179.327 44.2585C182.226 44.2585 183.957 42.4061 183.957 39.3051V36.3138Z" fill="#FF7230"/>
<path d="M190.885 23.6855H188.414L184.221 43.9864H186.398L187.307 39.5292H191.935L192.871 43.9864H195.133L190.883 23.6855H190.885ZM187.724 37.4458L189.598 28.2456L191.52 37.4458H187.724Z" fill="#FF7230"/>
<path d="M200.606 23.6855H195.948V43.9864H200.606C203.758 43.9864 205.29 42.3147 205.29 38.8935V28.7716C205.29 25.3504 203.758 23.6878 200.606 23.6878V23.6855ZM203.077 38.9483C203.077 41.1049 202.423 41.8664 200.578 41.8664H198.164V25.794H200.578C202.423 25.794 203.077 26.5556 203.077 28.7121V38.9483Z" fill="#FF7230"/>
<path d="M215.341 25.7918V23.6809H206.853V43.9818H215.341V41.871H209.064V34.4729H214.269V32.3598H209.064V25.7918H215.341Z" fill="#FF7230"/>
<path d="M218.425 30.3038L221.397 43.9818H223.288L226.26 30.3038V43.9818H228.474V23.6809H225.636L222.383 38.7951L219.131 23.6809H216.293V43.9818H218.425V30.3038Z" fill="#FF7230"/>
<path d="M232.466 23.6809H230.252V43.9818H232.466V23.6809Z" fill="#FF7230"/>
<path d="M239.943 23.6855H237.472L233.279 43.9864H235.466L236.374 39.5292H240.993L241.929 43.9864H244.191L239.941 23.6855H239.943ZM236.782 37.4458L238.656 28.2456L240.579 37.4458H236.782Z" fill="#FF7230"/>
<path d="M161.448 56.9486C162.555 56.2076 163.113 54.895 163.113 53.0334V52.2056C163.113 48.8598 161.673 47.3573 158.428 47.3573H153.941V67.6582H158.701C161.872 67.6582 163.416 66.0619 163.416 62.7642V61.1291C163.416 58.7347 162.489 57.5363 161.448 56.9463V56.9486ZM156.148 49.4796H158.401C160.245 49.4796 160.899 50.2205 160.899 52.3199V53.2598C160.899 55.2654 160.122 56.0453 158.125 56.0453H156.146V49.4773L156.148 49.4796ZM161.202 62.7368C161.202 64.7904 160.53 65.5497 158.703 65.5497H156.148V58.1561H158.184C160.446 58.1561 161.204 58.897 161.204 61.1108V62.7368H161.202Z" fill="#FF7230"/>
<path d="M164.702 67.6651H173.193V65.5519H166.916V58.1561H172.12V56.043H166.916V49.475H173.193V47.3642H164.702V67.6651Z" fill="#FF7230"/>
<path d="M176.359 47.3642H174.145V67.6651H182.388V65.5519H176.359V47.3642Z" fill="#FF7230"/>
<path d="M185.471 47.3642H183.258V67.6651H191.5V65.5519H185.471V47.3642Z" fill="#FF7230"/>
<path d="M192.37 67.6651H200.861V65.5519H194.584V58.1561H199.788V56.043H194.584V49.475H200.861V47.3642H192.37V67.6651Z" fill="#FF7230"/>
<path d="M211.841 47.3596H209.36L205.177 67.6605H207.354L208.263 63.2124H212.891L213.818 67.6605H216.079L211.838 47.3596H211.841ZM208.679 61.1314L210.554 51.922L212.465 61.1314H208.679Z" fill="#FF7230"/>
<path d="M226.246 67.0522C226.096 66.549 226.018 65.8081 226.018 64.8659V61.3303C226.018 59.9719 225.82 58.2133 224.315 57.3374C225.451 56.6147 226.018 55.2952 226.018 53.3925V52.2056C226.018 48.8598 224.579 47.3573 221.333 47.3573H216.895V67.6582H219.108V58.5151H221.088C223.124 58.5151 223.814 59.2081 223.814 61.2709V64.8636C223.814 65.7669 223.889 66.5833 224.041 67.2877L224.117 67.6582H226.435L226.246 67.0499V67.0522ZM223.814 53.612C223.814 55.5993 223.028 56.3769 221.031 56.3769H219.108V49.4773H221.304C223.149 49.4773 223.811 50.2182 223.811 52.3176V53.6097L223.814 53.612Z" fill="#FF7230"/>
<path d="M226.59 49.475H230.252V67.6651H232.464V49.475H236.126V47.3642H226.59V49.475Z" fill="#FF7230"/>
<path d="M239.21 47.3642H236.996V67.6651H239.21V47.3642Z" fill="#FF7230"/>
<path d="M11.3011 0H0V67.6651H26.2851L27.9705 57.2733H11.3011V0Z" fill="#FF7230"/>
<path d="M56.0115 0H41.1301L30.1546 67.6651H40.7156L42.5216 54.5885L43.9702 44.6725L48.1472 14.451L52.4107 44.6725L53.8592 54.5885L55.6676 67.6651H66.987L56.0707 0.354471L56.0115 0Z" fill="#FF7230"/>
<path d="M102.189 36.3436C100.977 34.1778 99.1777 32.5884 96.8318 31.6097C101.016 29.556 103.136 25.1377 103.136 18.4645V15.7842C103.134 5.01976 98.0708 0 87.2138 0H71.0091V67.6673H87.8765C93.149 67.6673 97.2281 66.2609 100.002 63.4846C102.776 60.7106 104.177 56.6422 104.177 51.396V45.665C104.177 41.8436 103.505 38.7082 102.189 36.3413V36.3436ZM82.3125 10.3894H86.9314C90.2247 10.3894 91.8349 12.5002 91.8349 16.8431V20.5685C91.8349 25.2155 90.0835 27.2028 85.9771 27.2028H82.3148V10.3894H82.3125ZM92.8757 51.1124C92.8757 53.413 92.4772 55.0002 91.6641 55.9492C90.8875 56.8525 89.6849 57.271 87.8788 57.271H82.3125V37.5991H86.5533C88.9675 37.5991 90.4616 38.093 91.4181 39.2136C92.4111 40.3731 92.8757 42.3032 92.8757 45.2877V51.1124Z" fill="#FF7230"/>
<path d="M132.252 0H117.371L106.397 67.6651H116.956L118.762 54.5885L120.211 44.6725L124.388 14.451L128.651 44.6725L130.102 54.5885L131.908 67.6651H143.228L132.311 0.354471L132.252 0Z" fill="#FF7230"/>
</svg>
