<svg width="832" height="465" viewBox="0 0 832 465" fill="none" xmlns="http://www.w3.org/2000/svg">
<path d="M32.4677 144.31C21.9124 144.31 13.8289 141.304 8.21714 135.291C2.73905 129.278 0 120.793 0 109.836V34.4741C0 23.5172 2.73905 15.0323 8.21714 9.0194C13.8289 3.00647 21.9124 0 32.4677 0C43.0231 0 51.0398 3.00647 56.5179 9.0194C62.1296 15.0323 64.9355 23.5172 64.9355 34.4741V49.306H44.092V33.0711C44.092 24.3858 40.4177 20.0431 33.069 20.0431C25.7203 20.0431 22.046 24.3858 22.046 33.0711V111.44C22.046 119.991 25.7203 124.267 33.069 124.267C40.4177 124.267 44.092 119.991 44.092 111.44V89.9935H64.9355V109.836C64.9355 120.793 62.1296 129.278 56.5179 135.291C51.0398 141.304 43.0231 144.31 32.4677 144.31Z" fill="#4F485F"/>
<path d="M78.1255 2.00431H110.794C122.151 2.00431 130.435 4.67672 135.646 10.0216C140.856 15.2328 143.462 23.3168 143.462 34.2737V42.8922C143.462 57.4569 138.652 66.6767 129.032 70.5517V70.9526C134.376 72.556 138.117 75.8298 140.255 80.7737C142.527 85.7177 143.662 92.3319 143.662 100.616V125.269C143.662 129.278 143.796 132.552 144.063 135.091C144.33 137.496 144.998 139.901 146.067 142.306H123.62C122.819 140.035 122.284 137.897 122.017 135.892C121.75 133.888 121.616 130.28 121.616 125.069V99.4138C121.616 93 120.547 88.5237 118.41 85.9849C116.405 83.4461 112.865 82.1767 107.787 82.1767H100.172V142.306H78.1255V2.00431ZM108.188 62.1336C112.597 62.1336 115.871 60.9978 118.009 58.7263C120.28 56.4547 121.416 52.6466 121.416 47.3017V36.4785C121.416 31.4009 120.481 27.7263 118.61 25.4547C116.873 23.1832 114.067 22.0474 110.192 22.0474H100.172V62.1336H108.188Z" fill="#4F485F"/>
<path d="M158.958 2.00431H219.084V22.0474H181.004V59.1272H211.267V79.1703H181.004V122.263H219.084V142.306H158.958V2.00431Z" fill="#4F485F"/>
<path d="M248.802 2.00431H278.664L301.512 142.306H279.466L275.458 114.446V114.847H250.405L246.397 142.306H225.954L248.802 2.00431ZM272.852 95.806L263.032 26.4569H262.631L253.011 95.806H272.852Z" fill="#4F485F"/>
<path d="M320.245 22.0474H297.197V2.00431H365.339V22.0474H342.291V142.306H320.245V22.0474Z" fill="#4F485F"/>
<path d="M376.013 2.00431H398.059V142.306H376.013V2.00431Z" fill="#4F485F"/>
<path d="M408.758 2.00431H431.004L445.434 110.838H445.835L460.265 2.00431H480.507L459.263 142.306H430.002L408.758 2.00431Z" fill="#4F485F"/>
<path d="M495.305 66.1422L516.55 43.694L485.886 37.0797L491.497 20.0431L520.157 33.6724L516.149 2.00431H534.186L530.178 33.6724L558.838 20.0431L564.45 37.0797L533.786 43.694L555.03 66.1422L540.6 76.7651L525.168 49.7069L509.735 76.7651L495.305 66.1422Z" fill="#4F485F"/>
<path d="M32.4677 304.655C21.9124 304.655 13.8289 301.649 8.21714 295.636C2.73905 289.623 0 281.138 0 270.181V194.819C0 183.862 2.73905 175.377 8.21714 169.364C13.8289 163.351 21.9124 160.345 32.4677 160.345C43.0231 160.345 51.0398 163.351 56.5179 169.364C62.1296 175.377 64.9355 183.862 64.9355 194.819V209.651H44.092V193.416C44.092 184.731 40.4177 180.388 33.069 180.388C25.7203 180.388 22.046 184.731 22.046 193.416V271.784C22.046 280.336 25.7203 284.612 33.069 284.612C40.4177 284.612 44.092 280.336 44.092 271.784V250.338H64.9355V270.181C64.9355 281.138 62.1296 289.623 56.5179 295.636C51.0398 301.649 43.0231 304.655 32.4677 304.655Z" fill="#4F485F"/>
<path d="M110.383 304.655C99.5609 304.655 91.2769 301.582 85.5316 295.435C79.7863 289.289 76.9136 280.603 76.9136 269.379V195.621C76.9136 184.397 79.7863 175.711 85.5316 169.565C91.2769 163.418 99.5609 160.345 110.383 160.345C121.206 160.345 129.49 163.418 135.235 169.565C140.981 175.711 143.853 184.397 143.853 195.621V269.379C143.853 280.603 140.981 289.289 135.235 295.435C129.49 301.582 121.206 304.655 110.383 304.655ZM110.383 284.612C117.999 284.612 121.807 280.002 121.807 270.782V194.218C121.807 184.998 117.999 180.388 110.383 180.388C102.768 180.388 98.9596 184.998 98.9596 194.218V270.782C98.9596 280.002 102.768 284.612 110.383 284.612Z" fill="#4F485F"/>
<path d="M158.762 162.349H190.228L204.257 262.765H204.658L218.688 162.349H250.153V302.651H229.31V196.422H228.909L212.875 302.651H194.437L178.403 196.422H178.003V302.651H158.762V162.349Z" fill="#4F485F"/>
<path d="M266.605 162.349H326.73V182.392H288.651V219.472H318.914V239.515H288.651V282.608H326.73V302.651H266.605V162.349Z" fill="#4F485F"/>
<path d="M33.4698 465C22.7809 465 14.6305 461.994 9.01882 455.981C3.40711 449.834 0.601254 441.082 0.601254 429.724V322.694H22.6473V431.328C22.6473 436.138 23.5825 439.612 25.4531 441.75C27.4573 443.888 30.2631 444.957 33.8707 444.957C37.4782 444.957 40.2172 443.888 42.0878 441.75C44.092 439.612 45.0941 436.138 45.0941 431.328V322.694H66.3384V429.724C66.3384 441.082 63.5326 449.834 57.9208 455.981C52.3091 461.994 44.1588 465 33.4698 465Z" fill="#4F485F"/>
<path d="M82.0399 322.694H109.698L131.142 406.675H131.543V322.694H151.184V462.996H128.537L102.082 360.575H101.681V462.996H82.0399V322.694Z" fill="#4F485F"/>
<path d="M171.779 386.832L193.023 364.384L162.359 357.769L167.971 340.733L196.631 354.362L192.622 322.694H210.66L206.651 354.362L235.311 340.733L240.923 357.769L210.259 364.384L231.503 386.832L217.073 397.455L201.641 370.397L186.209 397.455L171.779 386.832Z" fill="#4F485F"/>
<path d="M284.22 322.694H317.489C328.846 322.694 337.13 325.366 342.341 330.711C347.552 335.922 350.157 344.006 350.157 354.963V360.575C350.157 367.791 348.955 373.67 346.55 378.213C344.278 382.756 340.737 386.03 335.927 388.034V388.435C346.884 392.177 352.362 401.931 352.362 417.698V429.724C352.362 440.547 349.489 448.832 343.744 454.578C338.132 460.19 329.848 462.996 318.892 462.996H284.22V322.694ZM314.884 379.817C319.293 379.817 322.566 378.681 324.704 376.409C326.975 374.138 328.111 370.33 328.111 364.985V357.168C328.111 352.091 327.176 348.416 325.305 346.144C323.568 343.873 320.762 342.737 316.888 342.737H306.266V379.817H314.884ZM318.892 442.953C322.767 442.953 325.639 441.95 327.51 439.946C329.38 437.808 330.316 434.2 330.316 429.123V416.897C330.316 410.483 329.18 406.073 326.909 403.668C324.771 401.129 321.163 399.86 316.086 399.86H306.266V442.953H318.892Z" fill="#4F485F"/>
<path d="M382.284 322.694H412.146L434.994 462.996H412.948L408.939 435.136V435.537H383.887L379.879 462.996H359.436L382.284 322.694ZM406.334 416.496L396.513 347.147H396.112L386.492 416.496H406.334Z" fill="#4F485F"/>
<path d="M445.689 322.694H477.155L491.184 423.11H491.585L505.614 322.694H537.08V462.996H516.236V356.767H515.836L499.802 462.996H481.364L465.33 356.767H464.929V462.996H445.689V322.694Z" fill="#4F485F"/>
<path d="M553.531 322.694H586.801C598.158 322.694 606.442 325.366 611.653 330.711C616.864 335.922 619.469 344.006 619.469 354.963V360.575C619.469 367.791 618.267 373.67 615.862 378.213C613.59 382.756 610.049 386.03 605.239 388.034V388.435C616.196 392.177 621.674 401.931 621.674 417.698V429.724C621.674 440.547 618.801 448.832 613.056 454.578C607.444 460.19 599.16 462.996 588.204 462.996H553.531V322.694ZM584.195 379.817C588.605 379.817 591.878 378.681 594.016 376.409C596.287 374.138 597.423 370.33 597.423 364.985V357.168C597.423 352.091 596.488 348.416 594.617 346.144C592.88 343.873 590.074 342.737 586.2 342.737H575.577V379.817H584.195ZM588.204 442.953C592.079 442.953 594.951 441.95 596.822 439.946C598.692 437.808 599.628 434.2 599.628 429.123V416.897C599.628 410.483 598.492 406.073 596.221 403.668C594.083 401.129 590.475 399.86 585.398 399.86H575.577V442.953H588.204Z" fill="#4F485F"/>
<path d="M634.56 322.694H656.606V462.996H634.56V322.694Z" fill="#4F485F"/>
<path d="M673.117 322.694H700.775L722.219 406.675H722.62V322.694H742.261V462.996H719.614L693.159 360.575H692.758V462.996H673.117V322.694Z" fill="#4F485F"/>
<path d="M762.856 386.832L784.1 364.384L753.436 357.769L759.048 340.733L787.708 354.362L783.699 322.694H801.737L797.728 354.362L826.388 340.733L832 357.769L801.336 364.384L822.58 386.832L808.15 397.455L792.718 370.397L777.286 397.455L762.856 386.832Z" fill="#4F485F"/>
</svg>
